<?xml version="1.0" encoding="utf-8"?>
<!-- Generator: Adobe Illustrator 24.0.2, SVG Export Plug-In . SVG Version: 6.00 Build 0)  -->
<svg version="1.1" id="Warstwa_2_1_" xmlns="http://www.w3.org/2000/svg" xmlns:xlink="http://www.w3.org/1999/xlink" x="0px"
	 y="0px" viewBox="0 0 1649.6903076 1897.9659424" style="enable-background:new 0 0 1649.6903076 1897.9659424;"
	 xml:space="preserve">
<style type="text/css">
	.st0{fill:#2B292B;stroke:#000000;stroke-width:5;stroke-miterlimit:10;}
	.st1{fill:none;stroke:#000000;stroke-width:5;stroke-miterlimit:10;}
	.st2{fill:#F8E8E3;stroke:#000000;stroke-width:5;stroke-miterlimit:10;}
	.st3{fill:#FFFFFF;stroke:#000000;stroke-width:5;stroke-miterlimit:10;}
</style>
<g>
	<g>
		<path class="st0" d="M1004.1976929,381.798584c0,0,75.8311157-156.9528503,121.6825562-329.7773438
			c0,0,42.3243408,250.4191284,21.1621094,433.8247375L1004.1976929,381.798584z"/>
		<path class="st1" d="M1125.880249,52.0212517c0,0-16.3297119,315.6404114-57.543335,376.4960938"/>
	</g>
	<g>
		<path class="st0" d="M604.5566406,400.401825c0,0-75.8311768-156.9528503-121.6825562-329.7773438
			c0,0-42.3243408,250.4191589-21.1621704,433.8247375L604.5566406,400.401825z"/>
		<path class="st1" d="M482.8740845,70.6244888c0,0,16.3296509,315.6404114,57.5432739,376.4960938"/>
	</g>
	<path class="st0" d="M1141.4534912,971.3049316c0,0,4.552002,290.2579346,32.6357422,414.7540283
		c0,0,240.1881104,66.8590088,429.237793,183.2860107c0,0-19.5966797,69.1644287-195.9661865,138.3289795
		s-395.3903809,117.5797119-395.3903809,117.5797119l-171.8546753,34.1201172
		c-9.270874,1.8405762-18.6998901,2.7675781-28.1517334,2.7675781h-84.8104248
		c-10.6664429,0-21.3001099-1.180542-31.7068481-3.5200195l-110.3140869-24.7993164
		c-15.3043823-3.4405518-30.3595581-7.8702393-45.0878296-13.2683105
		c-58.7648315-21.5374756-216.885498-80.1169434-272.7456055-107.1160889
		c-69.1645203-33.4294434-220.1736908-130.2597656-239.7702942-161.3837891c0,0,298.0140991-157.0640869,387.927948-180.1190186
		c0,0,35.5061646-192.9034424,52.6083374-400.6298828H1141.4534912z"/>
	<g>
		<path class="st1" d="M1174.0892334,1386.05896c0,0,6.5690918,41.8514404,21.9976807,71.8010254"/>
		<path class="st1" d="M415.4569092,1371.9348145c0,0,3.7561951,64.1436768-22.5631409,90.4630127"/>
		<path class="st1" d="M1075.3809814,1359.8431396c0,0-64.4369507,240.5041504-154.2856445,332.1680908"/>
		<path class="st1" d="M551.7172852,1367.1036377c0,0,69.8518677,256.840332,127.4973145,332.1680908"/>
		<path class="st1" d="M1236.927124,1462.3978271c0,0,17.2437744,18.1512451-28.1343994,70.789917"/>
		<path class="st1" d="M1267.7843018,1596.717041c0,0-186.9578857,101.6470947-284.9747314,124.3361816"/>
		<path class="st1" d="M1189.7338867,1484.1793213c0,0-37.210083,145.210083-235.0587158,225.9831543"/>
		<path class="st1" d="M415.6421204,1494.1624756c0,0-5.5046692,90.7563477,195.9742737,197.8487549"/>
		<path class="st1" d="M383.8181458,1443.3389893c0,0-34.4873962,18.1512451,15.4285583,89.8487549"/>
		<path class="st1" d="M244.9610291,1520.4818115c0,0,86.2184753,136.1343994,325.815033,200.5714111"/>
	</g>
	<path class="st0" d="M1167.2032471,576.819397c-8.2280273-62.6553955-20.1960449-87.7497253-20.1960449-87.7497253
		c-76.2773438-135.5140381-290.5601196-140.130127-342.2478638-139.2080688
		c-51.6877441-0.9220581-265.9702148,3.6940308-342.2476807,139.2080688c0,0-11.9680176,25.0943298-20.196167,87.7497253
		c-8.7546387,66.6656494-11.126709,145.4799194,4.7263184,211.4925537
		c12.222168,50.894104,17.2468262,116.633606,21.0234375,182.992981l39.8005371,296.1906738
		c0,0,11.5419922,43.4547119,205.157959,154.1873779c8.1719971,4.6737061,17.4325562,7.1304932,26.8466187,7.1304932h129.7779541
		c9.4140625,0,18.6746216-2.4567871,26.8466187-7.1304932c193.6159058-110.732666,205.15802-154.1873779,205.15802-154.1873779
		l39.8005371-296.1906738c3.7766113-66.359375,8.8012695-132.098877,21.0234375-182.992981
		C1178.3299561,722.2993164,1175.9578857,643.4850464,1167.2032471,576.819397z"/>
	<g>
		<path class="st2" d="M804.7593384,1428.8134766h58.5986938c13.7352905,0,27.2196655-3.6020508,39.1505127-10.4074707
			c17.1986694-9.8101807,34.8227539-20.3419189,52.781311-31.6490479
			c20.2792969-12.7683105,39.4672852-25.5698242,57.5766602-38.2492676
			c26.8255005-42.7393799,73.5093384-348.4627686,73.5093384-348.4627686
			c-113.9717407,64.5280762-281.6165161,95.5351563-281.6165161,95.5351563s-211.2765503-53.3126221-261.9421387-83.8198242
			c0,0,38.9780273,327.0313721,52.6159668,336.4262695c17.2047119,11.850708,35.2364502,23.7675781,54.1044922,35.6523438
			c19.6108398,12.3525391,38.8815918,23.8874512,57.7209473,34.6599121
			c11.8666382,6.7854004,25.3145752,10.3146973,38.9842529,10.3146973H804.7593384z"/>
		<path class="st1" d="M740.2438354,1245.7301025c0,0,60.4744873-19.418457,126.4970093,3.883667"/>
		<path class="st1" d="M679.2145996,1214.4291992l66.5773926-31.9476318c0,0,13.8702393-9.5565186,29.9819336,0
			c9.4108887,5.5820313,27.8689575,4.9260254,41.5943604,3.414917c7.6463623-0.8419189,15.0944824-2.8098145,22.3290405-5.4245605
			c4.984436-1.8015137,13.467041-2.8041992,25.0263062,3.1746826l66.4605103,30.7825928"/>
	</g>
	<line class="st1" x1="806.1480103" y1="873.067688" x2="806.1480103" y2="1095.3166504"/>
	<g>
		<line class="st1" x1="905.6118164" y1="1071.2230225" x2="843.121521" y2="874.2609863"/>
		<path class="st3" d="M1092.940918,813.2722168c-1.3692627,4.5925903-3.9022217,8.7460938-7.3607178,12.0635986
			c-14.3087158,13.7253418-54.7498779,52.5909424-83.7092285,81.1395264
			c-15.9570313,15.7307129-36.9663696,19.1844482-55.336731,18.1876831
			c-19.9301758-1.0814209-39.1536255-7.7572632-55.7841187-18.7938843l-47.6286011-31.6081543l76.1843262-23.6540527
			c13.8423462-4.2977905,27.854126-8.0298462,42.0003052-11.1867676l103.0515137-22.9973755
			C1073.7412109,814.3287354,1083.326416,813.2722168,1092.940918,813.2722168L1092.940918,813.2722168L1092.940918,813.2722168z"/>
	</g>
	<g>
		<line class="st1" x1="702.9070435" y1="1068.0239258" x2="764.3823853" y2="874.2609863"/>
		<path class="st3" d="M514.5630493,813.2722168c1.3692017,4.5925903,3.9022217,8.7460938,7.3607178,12.0635986
			c14.3086548,13.7253418,54.7498169,52.5909424,83.7091675,81.1395264
			c15.9570923,15.7307129,36.9663696,19.1844482,55.336792,18.1876831
			c19.9301147-1.0814209,39.1536255-7.7572632,55.7841187-18.7938843l47.62854-31.6081543l-76.1843262-23.6540527
			c-13.8423462-4.2977905-27.8540649-8.0298462-42.0003052-11.1867676l-103.0514526-22.9973755
			C533.7627563,814.3287354,524.1774292,813.2722168,514.5630493,813.2722168L514.5630493,813.2722168L514.5630493,813.2722168z"/>
	</g>
	<path class="st1" d="M639.4727173,473.593689c0,0,128.0552979-50.7547913,308.2998657-13.0140686"/>
</g>
</svg>
